<?xml version="1.0" standalone="no"?><!DOCTYPE svg PUBLIC "-//W3C//DTD SVG 1.1//EN" "http://www.w3.org/Graphics/SVG/1.1/DTD/svg11.dtd"><svg t="1535335233434" class="icon" style="" viewBox="0 0 1024 1024" version="1.1" xmlns="http://www.w3.org/2000/svg" p-id="13073" xmlns:xlink="http://www.w3.org/1999/xlink" width="200" height="200"><defs><style type="text/css"></style></defs><path d="M512 0C229.23264 0 0 229.23264 0 512s229.23264 512 512 512 512-229.23264 512-512S794.76736 0 512 0z m249.18016 711.9872c-14.88896-3.4816-53.12512-67.44064-53.12512-67.44064s2.90816 75.5712-59.392 125.44c40.96 10.89536 52.40832 27.56608 52.40832 36.2496 0 13.824-45.54752 13.04576-101.31456 13.04576-29.5936 0-57.05728-0.9216-76.3904-3.66592-5.20192 0.14336-8.192 0-8.192 0h-7.61856s-3.91168 0.16384-10.56768-0.16384c-19.39456 3.05152-48.04608 4.096-78.99136 4.096-55.74656 0-101.31456 0.77824-101.31456-13.04576 0-10.91584 12.51328-27.52512 57.61024-37.80608-61.25568-49.88928-58.368-124.70272-58.368-124.70272s-38.23616 63.93856-53.12512 67.44064c-7.5776 1.76128-10.91584-26.89024-4.58752-63.488a354.85696 354.85696 0 0 1 16.5888-62.75072s14.336-43.97056 22.69184-65.80224c7.04512-18.69824 23.18336-55.808 23.18336-55.808s-14.86848-173.07648 101.76512-238.08c65.7408-31.00672 122.14272-22.3232 158.22848-8.192 6.88128 2.39616 13.6192 5.57056 20.80768 8.8064 116.6336 65.00352 101.7856 238.08 101.7856 238.08s16.13824 37.10976 23.18336 55.78752c8.192 21.87264 22.67136 65.80224 22.67136 65.80224a356.352 356.352 0 0 1 16.60928 62.75072c6.36928 36.5568 3.03104 65.20832-4.54656 63.44704z" fill="#01ABEE" p-id="13074"></path></svg>